<svg width="1584" height="396" viewBox="0 0 1584 396" fill="none" xmlns="http://www.w3.org/2000/svg">
<rect width="1584" height="396" fill="#F5F5F5"/>
<g id="Awesome banner" clip-path="url(#clip0_0_1)">
<rect width="1584" height="396" fill="url(#paint0_linear_0_1)"/>
<ellipse id="Ellipse 2" cx="323" cy="64" rx="285" ry="288" fill="url(#paint1_linear_0_1)" fill-opacity="0.1"/>
<g id="copyright">
<path d="M75.95 334.52L72.30 334.52L72.30 311.16L77.20 311.16L83.70 330.04Q83.60 329.02 83.50 327.62Q83.41 326.23 83.33 324.79Q83.25 323.35 83.25 322.23L83.25 311.16L86.90 311.16L86.90 334.52L82 334.52L75.57 315.64Q75.63 316.57 75.73 317.88Q75.82 319.19 75.89 320.57Q75.95 321.94 75.95 323.10L75.95 334.52M98.80 334.84Q96.46 334.84 94.67 333.96Q92.88 333.08 91.89 331.53Q90.90 329.98 90.90 327.93Q90.90 325.78 92.13 324.18Q93.36 322.58 95.34 322.17L95.34 322.10Q93.65 321.75 92.61 320.38Q91.57 319 91.57 317.11Q91.57 315.26 92.48 313.85Q93.39 312.44 95.02 311.64Q96.66 310.84 98.80 310.84Q100.94 310.84 102.59 311.64Q104.24 312.44 105.15 313.85Q106.06 315.26 106.06 317.11Q106.06 319 105.01 320.38Q103.95 321.75 102.26 322.10L102.26 322.17Q104.24 322.58 105.47 324.18Q106.70 325.78 106.70 327.93Q106.70 329.98 105.71 331.53Q104.72 333.08 102.93 333.96Q101.14 334.84 98.80 334.84M98.80 320.73Q100.30 320.73 101.23 319.82Q102.16 318.90 102.16 317.46Q102.16 315.99 101.23 315.08Q100.30 314.17 98.80 314.17Q97.30 314.17 96.37 315.08Q95.44 315.99 95.44 317.46Q95.44 318.90 96.37 319.82Q97.30 320.73 98.80 320.73M98.80 331.45Q100.56 331.45 101.68 330.42Q102.80 329.40 102.80 327.74Q102.80 326.04 101.68 325Q100.56 323.96 98.80 323.96Q97.04 323.96 95.92 325Q94.80 326.04 94.80 327.74Q94.80 329.40 95.92 330.42Q97.04 331.45 98.80 331.45M114.35 334.52L110.70 334.52L110.70 311.16L115.60 311.16L122.10 330.04Q122 329.02 121.90 327.62Q121.81 326.23 121.73 324.79Q121.65 323.35 121.65 322.23L121.65 311.16L125.30 311.16L125.30 334.52L120.40 334.52L113.97 315.64Q114.03 316.57 114.13 317.88Q114.22 319.19 114.29 320.57Q114.35 321.94 114.35 323.10" fill="white" fill-opacity="0.9"/>
<path d="M161.48 325.24L151.24 325.24L151.24 322.68L161.48 322.68" fill="white" fill-opacity="0.9"/>
<path d="M195.02 334.84Q191.82 334.84 189.96 333.05Q188.11 331.26 188.11 328.12L188.11 317.56Q188.11 314.42 189.96 312.63Q191.82 310.84 195.02 310.84Q198.15 310.84 200.01 312.65Q201.87 314.46 201.87 317.56L198.99 317.56Q198.99 315.58 197.95 314.50Q196.91 313.43 195.02 313.43Q193.13 313.43 192.06 314.50Q190.99 315.58 190.99 317.56L190.99 328.12Q190.99 330.10 192.06 331.18Q193.13 332.25 195.02 332.25Q196.91 332.25 197.95 331.18Q198.99 330.10 198.99 328.12L201.87 328.12Q201.87 331.22 200.01 333.03Q198.15 334.84 195.02 334.84" fill="white" fill-opacity="0.9"/>
<path d="M213.96 334.84Q210.83 334.84 209 333.02Q207.18 331.19 207.18 327.80L207.18 317.88Q207.18 314.49 209 312.66Q210.83 310.84 213.96 310.84Q217.10 310.84 218.92 312.66Q220.75 314.49 220.75 317.85L220.75 327.80Q220.75 331.19 218.92 333.02Q217.10 334.84 213.96 334.84M213.96 332.25Q215.85 332.25 216.86 331.18Q217.87 330.10 217.87 328.12L217.87 317.56Q217.87 315.58 216.86 314.50Q215.85 313.43 213.96 313.43Q212.11 313.43 211.08 314.50Q210.06 315.58 210.06 317.56L210.06 328.12Q210.06 330.10 211.08 331.18Q212.11 332.25 213.96 332.25" fill="white" fill-opacity="0.9"/>
<path d="M228.65 334.52L225.87 334.52L225.87 311.16L230.12 311.16L233.10 321.27L236.20 311.16L240.46 311.16L240.46 334.52L237.67 334.52L237.67 323.48Q237.67 321.91 237.72 319.88Q237.77 317.85 237.87 315.77Q237.96 313.69 238.09 312.02L234.31 324.09L231.82 324.09L228.20 312.31Q228.46 314.68 228.55 317.50Q228.65 320.31 228.65 323.48" fill="white" fill-opacity="0.9"/>
<path d="M247.85 334.52L245.07 334.52L245.07 311.16L249.32 311.16L252.30 321.27L255.40 311.16L259.66 311.16L259.66 334.52L256.87 334.52L256.87 323.48Q256.87 321.91 256.92 319.88Q256.97 317.85 257.07 315.77Q257.16 313.69 257.29 312.02L253.51 324.09L251.02 324.09L247.40 312.31Q247.66 314.68 247.75 317.50Q247.85 320.31 247.85 323.48" fill="white" fill-opacity="0.9"/>
<path d="M271.56 334.84Q268.30 334.84 266.57 333.03Q264.84 331.22 264.84 328.12L264.84 311.16L267.72 311.16L267.72 328.12Q267.72 330.04 268.67 331.16Q269.61 332.28 271.56 332.28Q273.48 332.28 274.44 331.16Q275.40 330.04 275.40 328.12L275.40 311.16L278.28 311.16L278.28 328.12Q278.28 331.26 276.57 333.05Q274.86 334.84 271.56 334.84" fill="white" fill-opacity="0.9"/>
<path d="M286.83 334.52L284.04 334.52L284.04 311.16L287.88 311.16L295.02 331.16Q294.95 330.36 294.87 329.19Q294.79 328.02 294.75 326.73Q294.70 325.43 294.70 324.28L294.70 311.16L297.48 311.16L297.48 334.52L293.64 334.52L286.54 314.52Q286.60 315.29 286.67 316.46Q286.73 317.62 286.78 318.92Q286.83 320.22 286.83 321.40" fill="white" fill-opacity="0.9"/>
<path d="M316.20 334.52L303.72 334.52L303.72 331.90L308.49 331.90L308.49 313.78L303.72 313.78L303.72 311.16L316.20 311.16L316.20 313.78L311.43 313.78L311.43 331.90L316.20 331.90" fill="white" fill-opacity="0.9"/>
<path d="M330.60 334.52L327.72 334.52L327.72 313.78L321.32 313.78L321.32 311.16L337 311.16L337 313.78L330.60 313.78" fill="white" fill-opacity="0.9"/>
<path d="M349.80 334.52L346.92 334.52L346.92 325.78L339.88 311.16L342.95 311.16L347.50 320.76Q347.88 321.56 348.11 322.12Q348.33 322.68 348.39 322.94Q348.46 322.68 348.70 322.12Q348.94 321.56 349.32 320.76L353.87 311.16L356.84 311.16L349.80 325.78" fill="white" fill-opacity="0.9"/>
<path d="M382.83 334.52L380.04 334.52L380.04 311.16L383.88 311.16L391.02 331.16Q390.95 330.36 390.87 329.19Q390.79 328.02 390.75 326.73Q390.70 325.43 390.70 324.28L390.70 311.16L393.48 311.16L393.48 334.52L389.64 334.52L382.54 314.52Q382.60 315.29 382.67 316.46Q382.73 317.62 382.78 318.92Q382.83 320.22 382.83 321.40" fill="white" fill-opacity="0.9"/>
<path d="M405.96 334.84Q402.83 334.84 401 333.02Q399.18 331.19 399.18 327.80L399.18 317.88Q399.18 314.49 401 312.66Q402.83 310.84 405.96 310.84Q409.10 310.84 410.92 312.66Q412.75 314.49 412.75 317.85L412.75 327.80Q412.75 331.19 410.92 333.02Q409.10 334.84 405.96 334.84M405.96 332.25Q407.85 332.25 408.86 331.18Q409.87 330.10 409.87 328.12L409.87 317.56Q409.87 315.58 408.86 314.50Q407.85 313.43 405.96 313.43Q404.11 313.43 403.08 314.50Q402.06 315.58 402.06 317.56L402.06 328.12Q402.06 330.10 403.08 331.18Q404.11 332.25 405.96 332.25" fill="white" fill-opacity="0.9"/>
<path d="M424.55 334.52L418.51 334.52L418.51 311.16L424.55 311.16Q426.83 311.16 428.47 312.02Q430.12 312.89 431.03 314.46Q431.95 316.02 431.95 318.17L431.95 327.48Q431.95 329.62 431.03 331.21Q430.12 332.79 428.47 333.66Q426.83 334.52 424.55 334.52M421.39 313.72L421.39 331.96L424.55 331.96Q426.67 331.96 427.87 330.78Q429.07 329.59 429.07 327.48L429.07 318.17Q429.07 316.09 427.87 314.90Q426.67 313.72 424.55 313.72" fill="white" fill-opacity="0.9"/>
<path d="M451.40 334.52L437.96 334.52L437.96 311.16L451.40 311.16L451.40 313.78L440.81 313.78L440.81 321.02L450.28 321.02L450.28 323.58L440.81 323.58L440.81 331.90L451.40 331.90" fill="white" fill-opacity="0.9"/>
<path d="M463.69 334.84Q460.30 334.84 458.28 333.05Q456.27 331.26 456.27 328.12L459.15 328.12Q459.15 330.07 460.39 331.18Q461.64 332.28 463.69 332.28Q465.67 332.28 466.86 331.13Q468.04 329.98 468.04 328.12Q468.04 326.71 467.29 325.67Q466.54 324.63 465.13 324.25L461.58 323.26Q459.37 322.62 458.11 320.97Q456.84 319.32 456.84 317.08Q456.84 315.22 457.67 313.82Q458.51 312.41 460.01 311.62Q461.51 310.84 463.47 310.84Q465.45 310.84 466.97 311.62Q468.49 312.41 469.35 313.80Q470.22 315.19 470.22 317.02L467.34 317.02Q467.34 315.42 466.25 314.41Q465.16 313.40 463.47 313.40Q461.77 313.40 460.71 314.41Q459.66 315.42 459.66 317.02Q459.66 318.30 460.35 319.21Q461.03 320.12 462.28 320.47L465.93 321.50Q468.27 322.14 469.56 323.91Q470.86 325.69 470.86 328.12Q470.86 331.19 468.91 333.02Q466.95 334.84 463.69 334.84" fill="white" fill-opacity="0.9"/>
</g>
<path d="M78.28 197.64L76.12 197.64L76.12 182.09L71.32 182.09L71.32 180.12L83.08 180.12L83.08 182.09L78.28 182.09" fill="white" fill-opacity="0.7"/>
<path d="M89.25 197.64L87.09 197.64L87.09 184.44L89.25 184.44L89.25 186.96L89.30 186.96Q89.46 185.69 90.38 184.94Q91.29 184.20 92.82 184.20Q94.89 184.20 96 185.44Q97.12 186.67 97.12 188.95L97.12 190.08L94.96 190.08L94.96 188.95Q94.96 186.07 92.15 186.07Q90.74 186.07 89.99 186.89Q89.25 187.70 89.25 189.24" fill="white" fill-opacity="0.7"/>
<path d="M104.85 197.88Q102.81 197.88 101.61 196.74Q100.41 195.60 100.41 193.75Q100.41 192.53 100.96 191.62Q101.51 190.70 102.50 190.19Q103.48 189.67 104.75 189.67L108.83 189.67L108.83 188.64Q108.83 186.07 106.02 186.07Q104.78 186.07 104.01 186.53Q103.24 186.98 103.19 187.80L101.03 187.80Q101.15 186.24 102.48 185.22Q103.82 184.20 106.02 184.20Q108.42 184.20 109.71 185.35Q110.99 186.50 110.99 188.57L110.99 197.64L108.86 197.64L108.86 195.24L108.81 195.24Q108.62 196.46 107.58 197.17Q106.55 197.88 104.85 197.88M105.38 196.06Q106.96 196.06 107.90 195.29Q108.83 194.52 108.83 193.20L108.83 191.35L104.99 191.35Q103.94 191.35 103.28 191.99Q102.62 192.62 102.62 193.68Q102.62 194.78 103.35 195.42Q104.08 196.06 105.38 196.06" fill="white" fill-opacity="0.7"/>
<path d="M117.57 197.64L115.41 197.64L115.41 184.44L117.57 184.44L117.57 186.96L117.59 186.96Q117.76 185.64 118.67 184.92Q119.58 184.20 121.10 184.20Q123.09 184.20 124.26 185.42Q125.44 186.65 125.44 188.76L125.44 197.64L123.28 197.64L123.28 189.14Q123.28 187.63 122.52 186.83Q121.77 186.02 120.47 186.02Q119.13 186.02 118.35 186.86Q117.57 187.70 117.57 189.24" fill="white" fill-opacity="0.7"/>
<path d="M135.33 197.83L134.27 197.83Q132.06 197.83 130.85 196.84Q129.64 195.84 129.64 194.02L131.80 194.02Q131.80 194.93 132.45 195.44Q133.10 195.96 134.27 195.96L135.33 195.96Q136.53 195.96 137.19 195.43Q137.85 194.90 137.85 193.94Q137.85 192.24 136.29 192.02L132.64 191.50Q131.30 191.30 130.55 190.38Q129.81 189.46 129.81 187.94Q129.81 186.22 131 185.23Q132.18 184.25 134.27 184.25L135.33 184.25Q137.25 184.25 138.46 185.20Q139.67 186.14 139.77 187.68L137.58 187.68Q137.54 186.98 136.92 186.53Q136.31 186.07 135.33 186.07L134.27 186.07Q133.17 186.07 132.54 186.58Q131.92 187.08 131.92 187.94Q131.92 189.34 133.19 189.53L136.60 190.01Q139.96 190.49 139.96 193.94Q139.96 195.79 138.75 196.81Q137.54 197.83 135.33 197.83" fill="white" fill-opacity="0.7"/>
<path d="M149.32 197.64L147.16 197.64L147.16 188.21L143.32 188.21L143.32 186.24L147.16 186.24L147.16 183.48Q147.16 181.92 148.14 181.02Q149.13 180.12 150.86 180.12L154.72 180.12L154.72 182.09L150.86 182.09Q149.32 182.09 149.32 183.48L149.32 186.24L154.72 186.24L154.72 188.21L149.32 188.21" fill="white" fill-opacity="0.7"/>
<path d="M163.60 197.88Q161.27 197.88 159.84 196.48Q158.42 195.07 158.42 192.60L158.42 189.48Q158.42 187.01 159.84 185.60Q161.27 184.20 163.60 184.20Q165.16 184.20 166.32 184.82Q167.49 185.45 168.14 186.58Q168.78 187.70 168.78 189.24L168.78 191.59L160.53 191.59L160.53 192.84Q160.53 194.30 161.37 195.16Q162.21 196.01 163.60 196.01Q164.80 196.01 165.58 195.54Q166.36 195.07 166.53 194.28L168.69 194.28Q168.47 195.94 167.08 196.91Q165.69 197.88 163.60 197.88M160.53 189.24L160.53 189.91L166.67 189.91L166.67 189.24Q166.67 187.68 165.87 186.83Q165.06 185.98 163.60 185.98Q162.14 185.98 161.33 186.83Q160.53 187.68 160.53 189.24" fill="white" fill-opacity="0.7"/>
<path d="M175.65 197.64L173.49 197.64L173.49 184.44L175.65 184.44L175.65 186.96L175.70 186.96Q175.86 185.69 176.78 184.94Q177.69 184.20 179.22 184.20Q181.29 184.20 182.40 185.44Q183.52 186.67 183.52 188.95L183.52 190.08L181.36 190.08L181.36 188.95Q181.36 186.07 178.55 186.07Q177.14 186.07 176.39 186.89Q175.65 187.70 175.65 189.24" fill="white" fill-opacity="0.7"/>
<path d="M192.93 197.83L191.87 197.83Q189.66 197.83 188.45 196.84Q187.24 195.84 187.24 194.02L189.40 194.02Q189.40 194.93 190.05 195.44Q190.70 195.96 191.87 195.96L192.93 195.96Q194.13 195.96 194.79 195.43Q195.45 194.90 195.45 193.94Q195.45 192.24 193.89 192.02L190.24 191.50Q188.90 191.30 188.15 190.38Q187.41 189.46 187.41 187.94Q187.41 186.22 188.60 185.23Q189.78 184.25 191.87 184.25L192.93 184.25Q194.85 184.25 196.06 185.20Q197.27 186.14 197.37 187.68L195.18 187.68Q195.14 186.98 194.52 186.53Q193.91 186.07 192.93 186.07L191.87 186.07Q190.77 186.07 190.14 186.58Q189.52 187.08 189.52 187.94Q189.52 189.34 190.79 189.53L194.20 190.01Q197.56 190.49 197.56 193.94Q197.56 195.79 196.35 196.81Q195.14 197.83 192.93 197.83" fill="white" fill-opacity="0.7"/>
<path d="M217.41 197.64L215.20 197.64L219.76 180.12L222.66 180.12L227.20 197.64L225.02 197.64L223.86 192.98L218.56 192.98L217.41 197.64M220.34 185.74L218.99 191.16L223.41 191.16L222.06 185.76Q221.68 184.22 221.46 183.19Q221.25 182.16 221.20 181.85Q221.15 182.16 220.94 183.19Q220.72 184.22 220.34 185.74" fill="white" fill-opacity="0.7"/>
<path d="M232.77 197.64L230.61 197.64L230.61 180.12L236.25 180.12Q238.70 180.12 240.15 181.52Q241.60 182.93 241.60 185.28Q241.60 187.63 240.15 189.04Q238.70 190.44 236.25 190.44L232.77 190.44L232.77 197.64M232.77 182.06L232.77 188.50L236.25 188.50Q237.66 188.50 238.52 187.62Q239.37 186.74 239.37 185.28Q239.37 183.79 238.52 182.93Q237.66 182.06 236.25 182.06" fill="white" fill-opacity="0.7"/>
<path d="M254.68 197.64L245.32 197.64L245.32 195.67L248.90 195.67L248.90 182.09L245.32 182.09L245.32 180.12L254.68 180.12L254.68 182.09L251.10 182.09L251.10 195.67L254.68 195.67" fill="white" fill-opacity="0.7"/>
<path d="M278.80 197.88Q276.47 197.88 275.04 196.48Q273.62 195.07 273.62 192.60L273.62 189.48Q273.62 187.01 275.04 185.60Q276.47 184.20 278.80 184.20Q280.36 184.20 281.52 184.82Q282.69 185.45 283.34 186.58Q283.98 187.70 283.98 189.24L283.98 191.59L275.73 191.59L275.73 192.84Q275.73 194.30 276.57 195.16Q277.41 196.01 278.80 196.01Q280 196.01 280.78 195.54Q281.56 195.07 281.73 194.28L283.89 194.28Q283.67 195.94 282.28 196.91Q280.89 197.88 278.80 197.88M275.73 189.24L275.73 189.91L281.87 189.91L281.87 189.24Q281.87 187.68 281.07 186.83Q280.26 185.98 278.80 185.98Q277.34 185.98 276.53 186.83Q275.73 187.68 275.73 189.24" fill="white" fill-opacity="0.7"/>
<path d="M290.37 197.64L288.21 197.64L288.21 184.44L290.37 184.44L290.37 186.96L290.39 186.96Q290.56 185.64 291.47 184.92Q292.38 184.20 293.90 184.20Q295.89 184.20 297.06 185.42Q298.24 186.65 298.24 188.76L298.24 197.64L296.08 197.64L296.08 189.14Q296.08 187.63 295.32 186.83Q294.57 186.02 293.27 186.02Q291.93 186.02 291.15 186.86Q290.37 187.70 290.37 189.24" fill="white" fill-opacity="0.7"/>
<path d="M306.83 197.88Q304.86 197.88 303.68 196.56Q302.49 195.24 302.49 192.98L302.49 189.12Q302.49 186.84 303.66 185.52Q304.84 184.20 306.83 184.20Q308.32 184.20 309.29 184.94Q310.26 185.69 310.46 186.96L310.48 186.96L310.43 183.96L310.43 180.12L312.59 180.12L312.59 197.64L310.43 197.64L310.43 195.12L310.41 195.12Q310.24 196.42 309.28 197.15Q308.32 197.88 306.83 197.88M307.55 196.01Q308.90 196.01 309.66 195.17Q310.43 194.33 310.43 192.84L310.43 189.24Q310.43 187.75 309.66 186.91Q308.90 186.07 307.55 186.07Q306.18 186.07 305.42 186.78Q304.65 187.49 304.65 189.12L304.65 192.96Q304.65 194.57 305.42 195.29Q306.18 196.01 307.55 196.01" fill="white" fill-opacity="0.7"/>
<path d="M319.17 201.96L317.01 201.96L317.01 184.44L319.17 184.44L319.17 186.96L319.19 186.96Q319.36 185.66 320.32 184.93Q321.28 184.20 322.77 184.20Q324.76 184.20 325.94 185.51Q327.11 186.82 327.11 189.10L327.11 192.96Q327.11 195.24 325.94 196.56Q324.76 197.88 322.77 197.88Q321.28 197.88 320.32 197.14Q319.36 196.39 319.19 195.12L319.12 195.12L319.17 198.12L319.17 201.96M322.05 196.01Q323.42 196.01 324.18 195.29Q324.95 194.57 324.95 192.96L324.95 189.12Q324.95 187.49 324.18 186.78Q323.42 186.07 322.05 186.07Q320.73 186.07 319.95 186.91Q319.17 187.75 319.17 189.24L319.17 192.84Q319.17 194.33 319.95 195.17Q320.73 196.01 322.05 196.01" fill="white" fill-opacity="0.7"/>
<path d="M336.40 197.83Q334.02 197.83 332.62 196.44Q331.22 195.05 331.22 192.55L331.22 189.53Q331.22 187.01 332.61 185.63Q334 184.25 336.40 184.25Q338.80 184.25 340.19 185.63Q341.58 187.01 341.58 189.53L341.58 192.55Q341.58 195.05 340.18 196.44Q338.78 197.83 336.40 197.83M336.40 195.91Q337.82 195.91 338.62 195.12Q339.42 194.33 339.42 192.79L339.42 189.29Q339.42 187.75 338.62 186.96Q337.82 186.17 336.40 186.17Q335.01 186.17 334.19 186.96Q333.38 187.75 333.38 189.29L333.38 192.79Q333.38 194.33 334.19 195.12Q335.01 195.91 336.40 195.91" fill="white" fill-opacity="0.7"/>
<path d="M356.92 197.64L345.64 197.64L345.64 195.67L350.32 195.67L350.32 186.41L346.12 186.41L346.12 184.44L352.48 184.44L352.48 195.67L356.92 195.67L356.92 197.64M351.16 182.06Q350.37 182.06 349.91 181.66Q349.46 181.25 349.46 180.55Q349.46 179.83 349.91 179.41Q350.37 178.99 351.16 178.99Q351.95 178.99 352.41 179.41Q352.86 179.83 352.86 180.55Q352.86 181.25 352.41 181.66Q351.95 182.06 351.16 182.06" fill="white" fill-opacity="0.7"/>
<path d="M362.37 197.64L360.21 197.64L360.21 184.44L362.37 184.44L362.37 186.96L362.39 186.96Q362.56 185.64 363.47 184.92Q364.38 184.20 365.90 184.20Q367.89 184.20 369.06 185.42Q370.24 186.65 370.24 188.76L370.24 197.64L368.08 197.64L368.08 189.14Q368.08 187.63 367.32 186.83Q366.57 186.02 365.27 186.02Q363.93 186.02 363.15 186.86Q362.37 187.70 362.37 189.24" fill="white" fill-opacity="0.7"/>
<path d="M384.76 197.64L380.92 197.64Q379.29 197.64 378.30 196.69Q377.32 195.74 377.32 194.16L377.32 186.41L373.53 186.41L373.53 184.44L377.32 184.44L377.32 180.72L379.48 180.72L379.48 184.44L384.88 184.44L384.88 186.41L379.48 186.41L379.48 194.16Q379.48 194.83 379.88 195.25Q380.27 195.67 380.92 195.67L384.76 195.67" fill="white" fill-opacity="0.7"/>
<path d="M394.53 197.83L393.47 197.83Q391.26 197.83 390.05 196.84Q388.84 195.84 388.84 194.02L391 194.02Q391 194.93 391.65 195.44Q392.30 195.96 393.47 195.96L394.53 195.96Q395.73 195.96 396.39 195.43Q397.05 194.90 397.05 193.94Q397.05 192.24 395.49 192.02L391.84 191.50Q390.50 191.30 389.75 190.38Q389.01 189.46 389.01 187.94Q389.01 186.22 390.20 185.23Q391.38 184.25 393.47 184.25L394.53 184.25Q396.45 184.25 397.66 185.20Q398.87 186.14 398.97 187.68L396.78 187.68Q396.74 186.98 396.12 186.53Q395.51 186.07 394.53 186.07L393.47 186.07Q392.37 186.07 391.74 186.58Q391.12 187.08 391.12 187.94Q391.12 189.34 392.39 189.53L395.80 190.01Q399.16 190.49 399.16 193.94Q399.16 195.79 397.95 196.81Q396.74 197.83 394.53 197.83" fill="white" fill-opacity="0.7"/>
<path d="M420.45 197.64L418.29 197.64L418.29 184.44L420.45 184.44L420.45 186.96L420.50 186.96Q420.66 185.69 421.58 184.94Q422.49 184.20 424.02 184.20Q426.09 184.20 427.20 185.44Q428.32 186.67 428.32 188.95L428.32 190.08L426.16 190.08L426.16 188.95Q426.16 186.07 423.35 186.07Q421.94 186.07 421.19 186.89Q420.45 187.70 420.45 189.24" fill="white" fill-opacity="0.7"/>
<path d="M437.20 197.88Q434.87 197.88 433.44 196.48Q432.02 195.07 432.02 192.60L432.02 189.48Q432.02 187.01 433.44 185.60Q434.87 184.20 437.20 184.20Q438.76 184.20 439.92 184.82Q441.09 185.45 441.74 186.58Q442.38 187.70 442.38 189.24L442.38 191.59L434.13 191.59L434.13 192.84Q434.13 194.30 434.97 195.16Q435.81 196.01 437.20 196.01Q438.40 196.01 439.18 195.54Q439.96 195.07 440.13 194.28L442.29 194.28Q442.07 195.94 440.68 196.91Q439.29 197.88 437.20 197.88M434.13 189.24L434.13 189.91L440.27 189.91L440.27 189.24Q440.27 187.68 439.47 186.83Q438.66 185.98 437.20 185.98Q435.74 185.98 434.93 186.83Q434.13 187.68 434.13 189.24" fill="white" fill-opacity="0.7"/>
<path d="M456.76 197.64L452.92 197.64Q451.29 197.64 450.30 196.69Q449.32 195.74 449.32 194.16L449.32 186.41L445.53 186.41L445.53 184.44L449.32 184.44L449.32 180.72L451.48 180.72L451.48 184.44L456.88 184.44L456.88 186.41L451.48 186.41L451.48 194.16Q451.48 194.83 451.88 195.25Q452.27 195.67 452.92 195.67L456.76 195.67" fill="white" fill-opacity="0.7"/>
<path d="M463.65 197.64L461.49 197.64L461.49 184.44L463.65 184.44L463.65 186.96L463.70 186.96Q463.86 185.69 464.78 184.94Q465.69 184.20 467.22 184.20Q469.29 184.20 470.40 185.44Q471.52 186.67 471.52 188.95L471.52 190.08L469.36 190.08L469.36 188.95Q469.36 186.07 466.55 186.07Q465.14 186.07 464.39 186.89Q463.65 187.70 463.65 189.24" fill="white" fill-opacity="0.7"/>
<path d="M486.52 197.64L475.24 197.64L475.24 195.67L479.92 195.67L479.92 186.41L475.72 186.41L475.72 184.44L482.08 184.44L482.08 195.67L486.52 195.67L486.52 197.64M480.76 182.06Q479.97 182.06 479.51 181.66Q479.06 181.25 479.06 180.55Q479.06 179.83 479.51 179.41Q479.97 178.99 480.76 178.99Q481.55 178.99 482.01 179.41Q482.46 179.83 482.46 180.55Q482.46 181.25 482.01 181.66Q481.55 182.06 480.76 182.06" fill="white" fill-opacity="0.7"/>
<path d="M494.80 197.88Q492.47 197.88 491.04 196.48Q489.62 195.07 489.62 192.60L489.62 189.48Q489.62 187.01 491.04 185.60Q492.47 184.20 494.80 184.20Q496.36 184.20 497.52 184.82Q498.69 185.45 499.34 186.58Q499.98 187.70 499.98 189.24L499.98 191.59L491.73 191.59L491.73 192.84Q491.73 194.30 492.57 195.16Q493.41 196.01 494.80 196.01Q496 196.01 496.78 195.54Q497.56 195.07 497.73 194.28L499.89 194.28Q499.67 195.94 498.28 196.91Q496.89 197.88 494.80 197.88M491.73 189.24L491.73 189.91L497.87 189.91L497.87 189.24Q497.87 187.68 497.07 186.83Q496.26 185.98 494.80 185.98Q493.34 185.98 492.53 186.83Q491.73 187.68 491.73 189.24" fill="white" fill-opacity="0.7"/>
<path d="M510.62 197.64L507.78 197.64L503.30 184.44L505.62 184.44L508.50 193.32Q508.77 194.11 508.96 194.84Q509.15 195.58 509.25 195.98Q509.37 195.58 509.54 194.84Q509.70 194.11 509.94 193.32L512.82 184.44L515.10 184.44" fill="white" fill-opacity="0.7"/>
<path d="M523.60 197.88Q521.27 197.88 519.84 196.48Q518.42 195.07 518.42 192.60L518.42 189.48Q518.42 187.01 519.84 185.60Q521.27 184.20 523.60 184.20Q525.16 184.20 526.32 184.82Q527.49 185.45 528.14 186.58Q528.78 187.70 528.78 189.24L528.78 191.59L520.53 191.59L520.53 192.84Q520.53 194.30 521.37 195.16Q522.21 196.01 523.60 196.01Q524.80 196.01 525.58 195.54Q526.36 195.07 526.53 194.28L528.69 194.28Q528.47 195.94 527.08 196.91Q525.69 197.88 523.60 197.88M520.53 189.24L520.53 189.91L526.67 189.91L526.67 189.24Q526.67 187.68 525.87 186.83Q525.06 185.98 523.60 185.98Q522.14 185.98 521.33 186.83Q520.53 187.68 520.53 189.24" fill="white" fill-opacity="0.7"/>
<path d="M557.56 197.64L553.72 197.64Q552.09 197.64 551.10 196.69Q550.12 195.74 550.12 194.16L550.12 186.41L546.33 186.41L546.33 184.44L550.12 184.44L550.12 180.72L552.28 180.72L552.28 184.44L557.68 184.44L557.68 186.41L552.28 186.41L552.28 194.16Q552.28 194.83 552.68 195.25Q553.07 195.67 553.72 195.67L557.56 195.67" fill="white" fill-opacity="0.7"/>
<path d="M564.45 197.64L562.29 197.64L562.29 184.44L564.45 184.44L564.45 186.96L564.50 186.96Q564.66 185.69 565.58 184.94Q566.49 184.20 568.02 184.20Q570.09 184.20 571.20 185.44Q572.32 186.67 572.32 188.95L572.32 190.08L570.16 190.08L570.16 188.95Q570.16 186.07 567.35 186.07Q565.94 186.07 565.19 186.89Q564.45 187.70 564.45 189.24" fill="white" fill-opacity="0.7"/>
<path d="M580.05 197.88Q578.01 197.88 576.81 196.74Q575.61 195.60 575.61 193.75Q575.61 192.53 576.16 191.62Q576.71 190.70 577.70 190.19Q578.68 189.67 579.95 189.67L584.03 189.67L584.03 188.64Q584.03 186.07 581.22 186.07Q579.98 186.07 579.21 186.53Q578.44 186.98 578.39 187.80L576.23 187.80Q576.35 186.24 577.68 185.22Q579.02 184.20 581.22 184.20Q583.62 184.20 584.91 185.35Q586.19 186.50 586.19 188.57L586.19 197.64L584.06 197.64L584.06 195.24L584.01 195.24Q583.82 196.46 582.78 197.17Q581.75 197.88 580.05 197.88M580.58 196.06Q582.16 196.06 583.10 195.29Q584.03 194.52 584.03 193.20L584.03 191.35L580.19 191.35Q579.14 191.35 578.48 191.99Q577.82 192.62 577.82 193.68Q577.82 194.78 578.55 195.42Q579.28 196.06 580.58 196.06" fill="white" fill-opacity="0.7"/>
<path d="M592.77 197.64L590.61 197.64L590.61 184.44L592.77 184.44L592.77 186.96L592.79 186.96Q592.96 185.64 593.87 184.92Q594.78 184.20 596.30 184.20Q598.29 184.20 599.46 185.42Q600.64 186.65 600.64 188.76L600.64 197.64L598.48 197.64L598.48 189.14Q598.48 187.63 597.72 186.83Q596.97 186.02 595.67 186.02Q594.33 186.02 593.55 186.86Q592.77 187.70 592.77 189.24" fill="white" fill-opacity="0.7"/>
<path d="M610.53 197.83L609.47 197.83Q607.26 197.83 606.05 196.84Q604.84 195.84 604.84 194.02L607 194.02Q607 194.93 607.65 195.44Q608.30 195.96 609.47 195.96L610.53 195.96Q611.73 195.96 612.39 195.43Q613.05 194.90 613.05 193.94Q613.05 192.24 611.49 192.02L607.84 191.50Q606.50 191.30 605.75 190.38Q605.01 189.46 605.01 187.94Q605.01 186.22 606.20 185.23Q607.38 184.25 609.47 184.25L610.53 184.25Q612.45 184.25 613.66 185.20Q614.87 186.14 614.97 187.68L612.78 187.68Q612.74 186.98 612.12 186.53Q611.51 186.07 610.53 186.07L609.47 186.07Q608.37 186.07 607.74 186.58Q607.12 187.08 607.12 187.94Q607.12 189.34 608.39 189.53L611.80 190.01Q615.16 190.49 615.16 193.94Q615.16 195.79 613.95 196.81Q612.74 197.83 610.53 197.83" fill="white" fill-opacity="0.7"/>
<path d="M623.25 197.88Q621.21 197.88 620.01 196.74Q618.81 195.60 618.81 193.75Q618.81 192.53 619.36 191.62Q619.91 190.70 620.90 190.19Q621.88 189.67 623.15 189.67L627.23 189.67L627.23 188.64Q627.23 186.07 624.42 186.07Q623.18 186.07 622.41 186.53Q621.64 186.98 621.59 187.80L619.43 187.80Q619.55 186.24 620.88 185.22Q622.22 184.20 624.42 184.20Q626.82 184.20 628.11 185.35Q629.39 186.50 629.39 188.57L629.39 197.64L627.26 197.64L627.26 195.24L627.21 195.24Q627.02 196.46 625.98 197.17Q624.95 197.88 623.25 197.88M623.78 196.06Q625.36 196.06 626.30 195.29Q627.23 194.52 627.23 193.20L627.23 191.35L623.39 191.35Q622.34 191.35 621.68 191.99Q621.02 192.62 621.02 193.68Q621.02 194.78 621.75 195.42Q622.48 196.06 623.78 196.06" fill="white" fill-opacity="0.7"/>
<path d="M638.99 197.88Q636.59 197.88 635.15 196.54Q633.71 195.19 633.71 192.84L633.71 189.24Q633.71 186.89 635.15 185.54Q636.59 184.20 638.99 184.20Q641.27 184.20 642.68 185.42Q644.08 186.65 644.15 188.76L641.99 188.76Q641.92 187.49 641.13 186.80Q640.34 186.12 638.99 186.12Q637.58 186.12 636.72 186.92Q635.87 187.73 635.87 189.22L635.87 192.84Q635.87 194.33 636.72 195.14Q637.58 195.96 638.99 195.96Q640.34 195.96 641.13 195.26Q641.92 194.57 641.99 193.32L644.15 193.32Q644.08 195.43 642.68 196.66Q641.27 197.88 638.99 197.88" fill="white" fill-opacity="0.7"/>
<path d="M658.36 197.64L654.52 197.64Q652.89 197.64 651.90 196.69Q650.92 195.74 650.92 194.16L650.92 186.41L647.13 186.41L647.13 184.44L650.92 184.44L650.92 180.72L653.08 180.72L653.08 184.44L658.48 184.44L658.48 186.41L653.08 186.41L653.08 194.16Q653.08 194.83 653.48 195.25Q653.87 195.67 654.52 195.67L658.36 195.67" fill="white" fill-opacity="0.7"/>
<path d="M673.72 197.64L662.44 197.64L662.44 195.67L667.12 195.67L667.12 186.41L662.92 186.41L662.92 184.44L669.28 184.44L669.28 195.67L673.72 195.67L673.72 197.64M667.96 182.06Q667.17 182.06 666.71 181.66Q666.26 181.25 666.26 180.55Q666.26 179.83 666.71 179.41Q667.17 178.99 667.96 178.99Q668.75 178.99 669.21 179.41Q669.66 179.83 669.66 180.55Q669.66 181.25 669.21 181.66Q668.75 182.06 667.96 182.06" fill="white" fill-opacity="0.7"/>
<path d="M682 197.83Q679.62 197.83 678.22 196.44Q676.82 195.05 676.82 192.55L676.82 189.53Q676.82 187.01 678.21 185.63Q679.60 184.25 682 184.25Q684.40 184.25 685.79 185.63Q687.18 187.01 687.18 189.53L687.18 192.55Q687.18 195.05 685.78 196.44Q684.38 197.83 682 197.83M682 195.91Q683.42 195.91 684.22 195.12Q685.02 194.33 685.02 192.79L685.02 189.29Q685.02 187.75 684.22 186.96Q683.42 186.17 682 186.17Q680.61 186.17 679.79 186.96Q678.98 187.75 678.98 189.29L678.98 192.79Q678.98 194.33 679.79 195.12Q680.61 195.91 682 195.91" fill="white" fill-opacity="0.7"/>
<path d="M693.57 197.64L691.41 197.64L691.41 184.44L693.57 184.44L693.57 186.96L693.59 186.96Q693.76 185.64 694.67 184.92Q695.58 184.20 697.10 184.20Q699.09 184.20 700.26 185.42Q701.44 186.65 701.44 188.76L701.44 197.64L699.28 197.64L699.28 189.14Q699.28 187.63 698.52 186.83Q697.77 186.02 696.47 186.02Q695.13 186.02 694.35 186.86Q693.57 187.70 693.57 189.24" fill="white" fill-opacity="0.7"/>
<path d="M711.33 197.83L710.27 197.83Q708.06 197.83 706.85 196.84Q705.64 195.84 705.64 194.02L707.80 194.02Q707.80 194.93 708.45 195.44Q709.10 195.96 710.27 195.96L711.33 195.96Q712.53 195.96 713.19 195.43Q713.85 194.90 713.85 193.94Q713.85 192.24 712.29 192.02L708.64 191.50Q707.30 191.30 706.55 190.38Q705.81 189.46 705.81 187.94Q705.81 186.22 707 185.23Q708.18 184.25 710.27 184.25L711.33 184.25Q713.25 184.25 714.46 185.20Q715.67 186.14 715.77 187.68L713.58 187.68Q713.54 186.98 712.92 186.53Q712.31 186.07 711.33 186.07L710.27 186.07Q709.17 186.07 708.54 186.58Q707.92 187.08 707.92 187.94Q707.92 189.34 709.19 189.53L712.60 190.01Q715.96 190.49 715.96 193.94Q715.96 195.79 714.75 196.81Q713.54 197.83 711.33 197.83" fill="white" fill-opacity="0.7"/>
<path d="M725.27 201.48L723.04 201.48L724.36 194.14L726.95 194.14" fill="white" fill-opacity="0.7"/>
<path d="M750.26 197.64L748.24 197.64L748.24 184.44L750.11 184.44L750.11 186.19L750.16 186.19Q750.28 185.30 750.87 184.75Q751.46 184.20 752.37 184.20Q753.23 184.20 753.83 184.70Q754.43 185.21 754.70 186.07L754.72 186.07Q754.89 185.21 755.48 184.70Q756.06 184.20 756.98 184.20Q758.25 184.20 759 185.15Q759.76 186.10 759.76 187.61L759.76 197.64L757.74 197.64L757.74 187.58Q757.74 186.79 757.36 186.32Q756.98 185.86 756.30 185.86Q755.66 185.86 755.27 186.31Q754.89 186.77 754.89 187.56L754.89 197.64L753.11 197.64L753.11 187.58Q753.11 186.79 752.73 186.32Q752.34 185.86 751.70 185.86Q751.02 185.86 750.64 186.31Q750.26 186.77 750.26 187.56" fill="white" fill-opacity="0.7"/>
<path d="M768.40 197.83Q766.02 197.83 764.62 196.44Q763.22 195.05 763.22 192.55L763.22 189.53Q763.22 187.01 764.61 185.63Q766 184.25 768.40 184.25Q770.80 184.25 772.19 185.63Q773.58 187.01 773.58 189.53L773.58 192.55Q773.58 195.05 772.18 196.44Q770.78 197.83 768.40 197.83M768.40 195.91Q769.82 195.91 770.62 195.12Q771.42 194.33 771.42 192.79L771.42 189.29Q771.42 187.75 770.62 186.96Q769.82 186.17 768.40 186.17Q767.01 186.17 766.19 186.96Q765.38 187.75 765.38 189.29L765.38 192.79Q765.38 194.33 766.19 195.12Q767.01 195.91 768.40 195.91" fill="white" fill-opacity="0.7"/>
<path d="M784.22 197.64L781.38 197.64L776.90 184.44L779.22 184.44L782.10 193.32Q782.37 194.11 782.56 194.84Q782.75 195.58 782.85 195.98Q782.97 195.58 783.14 194.84Q783.30 194.11 783.54 193.32L786.42 184.44L788.70 184.44" fill="white" fill-opacity="0.7"/>
<path d="M797.20 197.88Q794.87 197.88 793.44 196.48Q792.02 195.07 792.02 192.60L792.02 189.48Q792.02 187.01 793.44 185.60Q794.87 184.20 797.20 184.20Q798.76 184.20 799.92 184.82Q801.09 185.45 801.74 186.58Q802.38 187.70 802.38 189.24L802.38 191.59L794.13 191.59L794.13 192.84Q794.13 194.30 794.97 195.16Q795.81 196.01 797.20 196.01Q798.40 196.01 799.18 195.54Q799.96 195.07 800.13 194.28L802.29 194.28Q802.07 195.94 800.68 196.91Q799.29 197.88 797.20 197.88M794.13 189.24L794.13 189.91L800.27 189.91L800.27 189.24Q800.27 187.68 799.47 186.83Q798.66 185.98 797.20 185.98Q795.74 185.98 794.93 186.83Q794.13 187.68 794.13 189.24" fill="white" fill-opacity="0.7"/>
<path d="M826.12 197.64L823.96 197.64L823.96 188.21L820.12 188.21L820.12 186.24L823.96 186.24L823.96 183.48Q823.96 181.92 824.94 181.02Q825.93 180.12 827.66 180.12L831.52 180.12L831.52 182.09L827.66 182.09Q826.12 182.09 826.12 183.48L826.12 186.24L831.52 186.24L831.52 188.21L826.12 188.21" fill="white" fill-opacity="0.7"/>
<path d="M840.38 197.88Q838.10 197.88 836.73 196.52Q835.36 195.17 835.36 192.84L835.36 184.44L837.52 184.44L837.52 192.84Q837.52 194.28 838.29 195.13Q839.06 195.98 840.38 195.98Q841.72 195.98 842.50 195.13Q843.28 194.28 843.28 192.84L843.28 184.44L845.44 184.44L845.44 192.84Q845.44 195.17 844.05 196.52Q842.66 197.88 840.38 197.88" fill="white" fill-opacity="0.7"/>
<path d="M851.97 197.64L849.81 197.64L849.81 184.44L851.97 184.44L851.97 186.96L851.99 186.96Q852.16 185.64 853.07 184.92Q853.98 184.20 855.50 184.20Q857.49 184.20 858.66 185.42Q859.84 186.65 859.84 188.76L859.84 197.64L857.68 197.64L857.68 189.14Q857.68 187.63 856.92 186.83Q856.17 186.02 854.87 186.02Q853.53 186.02 852.75 186.86Q851.97 187.70 851.97 189.24" fill="white" fill-opacity="0.7"/>
<path d="M868.43 197.88Q866.46 197.88 865.28 196.56Q864.09 195.24 864.09 192.98L864.09 189.12Q864.09 186.84 865.26 185.52Q866.44 184.20 868.43 184.20Q869.92 184.20 870.89 184.94Q871.86 185.69 872.06 186.96L872.08 186.96L872.03 183.96L872.03 180.12L874.19 180.12L874.19 197.64L872.03 197.64L872.03 195.12L872.01 195.12Q871.84 196.42 870.88 197.15Q869.92 197.88 868.43 197.88M869.15 196.01Q870.50 196.01 871.26 195.17Q872.03 194.33 872.03 192.84L872.03 189.24Q872.03 187.75 871.26 186.91Q870.50 186.07 869.15 186.07Q867.78 186.07 867.02 186.78Q866.25 187.49 866.25 189.12L866.25 192.96Q866.25 194.57 867.02 195.29Q867.78 196.01 869.15 196.01" fill="white" fill-opacity="0.7"/>
<path d="M884.13 197.83L883.07 197.83Q880.86 197.83 879.65 196.84Q878.44 195.84 878.44 194.02L880.60 194.02Q880.60 194.93 881.25 195.44Q881.90 195.96 883.07 195.96L884.13 195.96Q885.33 195.96 885.99 195.43Q886.65 194.90 886.65 193.94Q886.65 192.24 885.09 192.02L881.44 191.50Q880.10 191.30 879.35 190.38Q878.61 189.46 878.61 187.94Q878.61 186.22 879.80 185.23Q880.98 184.25 883.07 184.25L884.13 184.25Q886.05 184.25 887.26 185.20Q888.47 186.14 888.57 187.68L886.38 187.68Q886.34 186.98 885.72 186.53Q885.11 186.07 884.13 186.07L883.07 186.07Q881.97 186.07 881.34 186.58Q880.72 187.08 880.72 187.94Q880.72 189.34 881.99 189.53L885.40 190.01Q888.76 190.49 888.76 193.94Q888.76 195.79 887.55 196.81Q886.34 197.83 884.13 197.83" fill="white" fill-opacity="0.7"/>
<path d="M918.52 197.64L907.24 197.64L907.24 195.67L911.92 195.67L911.92 186.41L907.72 186.41L907.72 184.44L914.08 184.44L914.08 195.67L918.52 195.67L918.52 197.64M912.76 182.06Q911.97 182.06 911.51 181.66Q911.06 181.25 911.06 180.55Q911.06 179.83 911.51 179.41Q911.97 178.99 912.76 178.99Q913.55 178.99 914.01 179.41Q914.46 179.83 914.46 180.55Q914.46 181.25 914.01 181.66Q913.55 182.06 912.76 182.06" fill="white" fill-opacity="0.7"/>
<path d="M923.97 197.64L921.81 197.64L921.81 184.44L923.97 184.44L923.97 186.96L923.99 186.96Q924.16 185.64 925.07 184.92Q925.98 184.20 927.50 184.20Q929.49 184.20 930.66 185.42Q931.84 186.65 931.84 188.76L931.84 197.64L929.68 197.64L929.68 189.14Q929.68 187.63 928.92 186.83Q928.17 186.02 926.87 186.02Q925.53 186.02 924.75 186.86Q923.97 187.70 923.97 189.24" fill="white" fill-opacity="0.7"/>
<path d="M946.36 197.64L942.52 197.64Q940.89 197.64 939.90 196.69Q938.92 195.74 938.92 194.16L938.92 186.41L935.13 186.41L935.13 184.44L938.92 184.44L938.92 180.72L941.08 180.72L941.08 184.44L946.48 184.44L946.48 186.41L941.08 186.41L941.08 194.16Q941.08 194.83 941.48 195.25Q941.87 195.67 942.52 195.67L946.36 195.67" fill="white" fill-opacity="0.7"/>
<path d="M955.60 197.88Q953.27 197.88 951.84 196.48Q950.42 195.07 950.42 192.60L950.42 189.48Q950.42 187.01 951.84 185.60Q953.27 184.20 955.60 184.20Q957.16 184.20 958.32 184.82Q959.49 185.45 960.14 186.58Q960.78 187.70 960.78 189.24L960.78 191.59L952.53 191.59L952.53 192.84Q952.53 194.30 953.37 195.16Q954.21 196.01 955.60 196.01Q956.80 196.01 957.58 195.54Q958.36 195.07 958.53 194.28L960.69 194.28Q960.47 195.94 959.08 196.91Q957.69 197.88 955.60 197.88M952.53 189.24L952.53 189.91L958.67 189.91L958.67 189.24Q958.67 187.68 957.87 186.83Q957.06 185.98 955.60 185.98Q954.14 185.98 953.33 186.83Q952.53 187.68 952.53 189.24" fill="white" fill-opacity="0.7"/>
<path d="M967.65 197.64L965.49 197.64L965.49 184.44L967.65 184.44L967.65 186.96L967.70 186.96Q967.86 185.69 968.78 184.94Q969.69 184.20 971.22 184.20Q973.29 184.20 974.40 185.44Q975.52 186.67 975.52 188.95L975.52 190.08L973.36 190.08L973.36 188.95Q973.36 186.07 970.55 186.07Q969.14 186.07 968.39 186.89Q967.65 187.70 967.65 189.24" fill="white" fill-opacity="0.7"/>
<path d="M981.57 197.64L979.41 197.64L979.41 184.44L981.57 184.44L981.57 186.96L981.59 186.96Q981.76 185.64 982.67 184.92Q983.58 184.20 985.10 184.20Q987.09 184.20 988.26 185.42Q989.44 186.65 989.44 188.76L989.44 197.64L987.28 197.64L987.28 189.14Q987.28 187.63 986.52 186.83Q985.77 186.02 984.47 186.02Q983.13 186.02 982.35 186.86Q981.57 187.70 981.57 189.24" fill="white" fill-opacity="0.7"/>
<path d="M997.65 197.88Q995.61 197.88 994.41 196.74Q993.21 195.60 993.21 193.75Q993.21 192.53 993.76 191.62Q994.31 190.70 995.30 190.19Q996.28 189.67 997.55 189.67L1001.63 189.67L1001.63 188.64Q1001.63 186.07 998.82 186.07Q997.58 186.07 996.81 186.53Q996.04 186.98 995.99 187.80L993.83 187.80Q993.95 186.24 995.28 185.22Q996.62 184.20 998.82 184.20Q1001.22 184.20 1002.51 185.35Q1003.79 186.50 1003.79 188.57L1003.79 197.64L1001.66 197.64L1001.66 195.24L1001.61 195.24Q1001.42 196.46 1000.38 197.17Q999.35 197.88 997.65 197.88M998.18 196.06Q999.76 196.06 1000.70 195.29Q1001.63 194.52 1001.63 193.20L1001.63 191.35L997.79 191.35Q996.74 191.35 996.08 191.99Q995.42 192.62 995.42 193.68Q995.42 194.78 996.15 195.42Q996.88 196.06 998.18 196.06" fill="white" fill-opacity="0.7"/>
<path d="M1019.20 197.64L1015.12 197.64Q1013.37 197.64 1012.32 196.62Q1011.28 195.60 1011.28 193.92L1011.28 182.09L1006.72 182.09L1006.72 180.12L1013.44 180.12L1013.44 193.92Q1013.44 194.74 1013.90 195.20Q1014.35 195.67 1015.12 195.67L1019.20 195.67" fill="white" fill-opacity="0.7"/>
<path d="M1033.60 197.64L1029.52 197.64Q1027.77 197.64 1026.72 196.62Q1025.68 195.60 1025.68 193.92L1025.68 182.09L1021.12 182.09L1021.12 180.12L1027.84 180.12L1027.84 193.92Q1027.84 194.74 1028.30 195.20Q1028.75 195.67 1029.52 195.67L1033.60 195.67" fill="white" fill-opacity="0.7"/>
<path d="M1041.33 201.96L1039.07 201.96L1041.02 196.82L1036.10 184.44L1038.42 184.44L1041.54 192.60Q1041.74 193.08 1041.90 193.61Q1042.07 194.14 1042.14 194.52Q1042.22 194.14 1042.38 193.61Q1042.55 193.08 1042.72 192.60L1045.62 184.44L1047.90 184.44" fill="white" fill-opacity="0.7"/>
<path d="M1056.47 201.48L1054.24 201.48L1055.56 194.14L1058.15 194.14" fill="white" fill-opacity="0.7"/>
<path d="M1085.20 197.83Q1082.82 197.83 1081.42 196.44Q1080.02 195.05 1080.02 192.55L1080.02 189.53Q1080.02 187.01 1081.41 185.63Q1082.80 184.25 1085.20 184.25Q1087.60 184.25 1088.99 185.63Q1090.38 187.01 1090.38 189.53L1090.38 192.55Q1090.38 195.05 1088.98 196.44Q1087.58 197.83 1085.20 197.83M1085.20 195.91Q1086.62 195.91 1087.42 195.12Q1088.22 194.33 1088.22 192.79L1088.22 189.29Q1088.22 187.75 1087.42 186.96Q1086.62 186.17 1085.20 186.17Q1083.81 186.17 1082.99 186.96Q1082.18 187.75 1082.18 189.29L1082.18 192.79Q1082.18 194.33 1082.99 195.12Q1083.81 195.91 1085.20 195.91" fill="white" fill-opacity="0.7"/>
<path d="M1097.25 197.64L1095.09 197.64L1095.09 184.44L1097.25 184.44L1097.25 186.96L1097.30 186.96Q1097.46 185.69 1098.38 184.94Q1099.29 184.20 1100.82 184.20Q1102.89 184.20 1104 185.44Q1105.12 186.67 1105.12 188.95L1105.12 190.08L1102.96 190.08L1102.96 188.95Q1102.96 186.07 1100.15 186.07Q1098.74 186.07 1097.99 186.89Q1097.25 187.70 1097.25 189.24" fill="white" fill-opacity="0.7"/>
<path d="M77.73 229.83L76.67 229.83Q74.46 229.83 73.25 228.84Q72.04 227.84 72.04 226.02L74.20 226.02Q74.20 226.93 74.85 227.44Q75.50 227.96 76.67 227.96L77.73 227.96Q78.93 227.96 79.59 227.43Q80.25 226.90 80.25 225.94Q80.25 224.24 78.69 224.02L75.04 223.50Q73.70 223.30 72.95 222.38Q72.21 221.46 72.21 219.94Q72.21 218.22 73.40 217.23Q74.58 216.25 76.67 216.25L77.73 216.25Q79.65 216.25 80.86 217.20Q82.07 218.14 82.17 219.68L79.98 219.68Q79.94 218.98 79.32 218.53Q78.71 218.07 77.73 218.07L76.67 218.07Q75.57 218.07 74.94 218.58Q74.32 219.08 74.32 219.94Q74.32 221.34 75.59 221.53L79 222.01Q82.36 222.49 82.36 225.94Q82.36 227.79 81.15 228.81Q79.94 229.83 77.73 229.83" fill="white" fill-opacity="0.7"/>
<path d="M91.60 229.88Q89.27 229.88 87.84 228.48Q86.42 227.07 86.42 224.60L86.42 221.48Q86.42 219.01 87.84 217.60Q89.27 216.20 91.60 216.20Q93.16 216.20 94.32 216.82Q95.49 217.45 96.14 218.58Q96.78 219.70 96.78 221.24L96.78 223.59L88.53 223.59L88.53 224.84Q88.53 226.30 89.37 227.16Q90.21 228.01 91.60 228.01Q92.80 228.01 93.58 227.54Q94.36 227.07 94.53 226.28L96.69 226.28Q96.47 227.94 95.08 228.91Q93.69 229.88 91.60 229.88M88.53 221.24L88.53 221.91L94.67 221.91L94.67 221.24Q94.67 219.68 93.87 218.83Q93.06 217.98 91.60 217.98Q90.14 217.98 89.33 218.83Q88.53 219.68 88.53 221.24" fill="white" fill-opacity="0.7"/>
<path d="M103.17 229.64L101.01 229.64L101.01 216.44L103.17 216.44L103.17 218.96L103.19 218.96Q103.36 217.64 104.27 216.92Q105.18 216.20 106.70 216.20Q108.69 216.20 109.86 217.42Q111.04 218.65 111.04 220.76L111.04 229.64L108.88 229.64L108.88 221.14Q108.88 219.63 108.12 218.83Q107.37 218.02 106.07 218.02Q104.73 218.02 103.95 218.86Q103.17 219.70 103.17 221.24" fill="white" fill-opacity="0.7"/>
<path d="M119.63 229.88Q117.66 229.88 116.48 228.56Q115.29 227.24 115.29 224.98L115.29 221.12Q115.29 218.84 116.46 217.52Q117.64 216.20 119.63 216.20Q121.12 216.20 122.09 216.94Q123.06 217.69 123.26 218.96L123.28 218.96L123.23 215.96L123.23 212.12L125.39 212.12L125.39 229.64L123.23 229.64L123.23 227.12L123.21 227.12Q123.04 228.42 122.08 229.15Q121.12 229.88 119.63 229.88M120.35 228.01Q121.70 228.01 122.46 227.17Q123.23 226.33 123.23 224.84L123.23 221.24Q123.23 219.75 122.46 218.91Q121.70 218.07 120.35 218.07Q118.98 218.07 118.22 218.78Q117.45 219.49 117.45 221.12L117.45 224.96Q117.45 226.57 118.22 227.29Q118.98 228.01 120.35 228.01" fill="white" fill-opacity="0.7"/>
<path d="M149.32 229.64L147.16 229.64L147.16 220.21L143.32 220.21L143.32 218.24L147.16 218.24L147.16 215.48Q147.16 213.92 148.14 213.02Q149.13 212.12 150.86 212.12L154.72 212.12L154.72 214.09L150.86 214.09Q149.32 214.09 149.32 215.48L149.32 218.24L154.72 218.24L154.72 220.21L149.32 220.21" fill="white" fill-opacity="0.7"/>
<path d="M163.58 229.88Q161.30 229.88 159.93 228.52Q158.56 227.17 158.56 224.84L158.56 216.44L160.72 216.44L160.72 224.84Q160.72 226.28 161.49 227.13Q162.26 227.98 163.58 227.98Q164.92 227.98 165.70 227.13Q166.48 226.28 166.48 224.84L166.48 216.44L168.64 216.44L168.64 224.84Q168.64 227.17 167.25 228.52Q165.86 229.88 163.58 229.88" fill="white" fill-opacity="0.7"/>
<path d="M175.17 229.64L173.01 229.64L173.01 216.44L175.17 216.44L175.17 218.96L175.19 218.96Q175.36 217.64 176.27 216.92Q177.18 216.20 178.70 216.20Q180.69 216.20 181.86 217.42Q183.04 218.65 183.04 220.76L183.04 229.64L180.88 229.64L180.88 221.14Q180.88 219.63 180.12 218.83Q179.37 218.02 178.07 218.02Q176.73 218.02 175.95 218.86Q175.17 219.70 175.17 221.24" fill="white" fill-opacity="0.7"/>
<path d="M191.63 229.88Q189.66 229.88 188.48 228.56Q187.29 227.24 187.29 224.98L187.29 221.12Q187.29 218.84 188.46 217.52Q189.64 216.20 191.63 216.20Q193.12 216.20 194.09 216.94Q195.06 217.69 195.26 218.96L195.28 218.96L195.23 215.96L195.23 212.12L197.39 212.12L197.39 229.64L195.23 229.64L195.23 227.12L195.21 227.12Q195.04 228.42 194.08 229.15Q193.12 229.88 191.63 229.88M192.35 228.01Q193.70 228.01 194.46 227.17Q195.23 226.33 195.23 224.84L195.23 221.24Q195.23 219.75 194.46 218.91Q193.70 218.07 192.35 218.07Q190.98 218.07 190.22 218.78Q189.45 219.49 189.45 221.12L189.45 224.96Q189.45 226.57 190.22 227.29Q190.98 228.01 192.35 228.01" fill="white" fill-opacity="0.7"/>
<path d="M207.33 229.83L206.27 229.83Q204.06 229.83 202.85 228.84Q201.64 227.84 201.64 226.02L203.80 226.02Q203.80 226.93 204.45 227.44Q205.10 227.96 206.27 227.96L207.33 227.96Q208.53 227.96 209.19 227.43Q209.85 226.90 209.85 225.94Q209.85 224.24 208.29 224.02L204.64 223.50Q203.30 223.30 202.55 222.38Q201.81 221.46 201.81 219.94Q201.81 218.22 203 217.23Q204.18 216.25 206.27 216.25L207.33 216.25Q209.25 216.25 210.46 217.20Q211.67 218.14 211.77 219.68L209.58 219.68Q209.54 218.98 208.92 218.53Q208.31 218.07 207.33 218.07L206.27 218.07Q205.17 218.07 204.54 218.58Q203.92 219.08 203.92 219.94Q203.92 221.34 205.19 221.53L208.60 222.01Q211.96 222.49 211.96 225.94Q211.96 227.79 210.75 228.81Q209.54 229.83 207.33 229.83" fill="white" fill-opacity="0.7"/>
<path d="M235.60 229.88Q233.27 229.88 231.84 228.48Q230.42 227.07 230.42 224.60L230.42 221.48Q230.42 219.01 231.84 217.60Q233.27 216.20 235.60 216.20Q237.16 216.20 238.32 216.82Q239.49 217.45 240.14 218.58Q240.78 219.70 240.78 221.24L240.78 223.59L232.53 223.59L232.53 224.84Q232.53 226.30 233.37 227.16Q234.21 228.01 235.60 228.01Q236.80 228.01 237.58 227.54Q238.36 227.07 238.53 226.28L240.69 226.28Q240.47 227.94 239.08 228.91Q237.69 229.88 235.60 229.88M232.53 221.24L232.53 221.91L238.67 221.91L238.67 221.24Q238.67 219.68 237.87 218.83Q237.06 217.98 235.60 217.98Q234.14 217.98 233.33 218.83Q232.53 219.68 232.53 221.24" fill="white" fill-opacity="0.7"/>
<path d="M246.54 229.64LNaN 229.64L248.68 222.85L244.29 216.44L246.83 216.44L249.45 220.52Q249.62 220.78 249.77 221.10Q249.93 221.41 250.02 221.60Q250.10 221.41 250.25 221.10Q250.41 220.78 250.58 220.52L253.19 216.44L255.74 216.44L251.34 222.87LNaN 229.64L253.46 229.64L250.62 225.32Q250.46 225.06 250.30 224.71Q250.14 224.36 250.02 224.14Q249.93 224.36 249.75 224.71Q249.57 225.06 249.38 225.32" fill="white" fill-opacity="0.7"/>
<path d="M269.56 229.64L265.72 229.64Q264.09 229.64 263.10 228.69Q262.12 227.74 262.12 226.16L262.12 218.41L258.33 218.41L258.33 216.44L262.12 216.44L262.12 212.72L264.28 212.72L264.28 216.44L269.68 216.44L269.68 218.41L264.28 218.41L264.28 226.16Q264.28 226.83 264.68 227.25Q265.07 227.67 265.72 227.67L269.56 227.67" fill="white" fill-opacity="0.7"/>
<path d="M278.80 229.88Q276.47 229.88 275.04 228.48Q273.62 227.07 273.62 224.60L273.62 221.48Q273.62 219.01 275.04 217.60Q276.47 216.20 278.80 216.20Q280.36 216.20 281.52 216.82Q282.69 217.45 283.34 218.58Q283.98 219.70 283.98 221.24L283.98 223.59L275.73 223.59L275.73 224.84Q275.73 226.30 276.57 227.16Q277.41 228.01 278.80 228.01Q280 228.01 280.78 227.54Q281.56 227.07 281.73 226.28L283.89 226.28Q283.67 227.94 282.28 228.91Q280.89 229.88 278.80 229.88M275.73 221.24L275.73 221.91L281.87 221.91L281.87 221.24Q281.87 219.68 281.07 218.83Q280.26 217.98 278.80 217.98Q277.34 217.98 276.53 218.83Q275.73 219.68 275.73 221.24" fill="white" fill-opacity="0.7"/>
<path d="M290.85 229.64L288.69 229.64L288.69 216.44L290.85 216.44L290.85 218.96L290.90 218.96Q291.06 217.69 291.98 216.94Q292.89 216.20 294.42 216.20Q296.49 216.20 297.60 217.44Q298.72 218.67 298.72 220.95L298.72 222.08L296.56 222.08L296.56 220.95Q296.56 218.07 293.75 218.07Q292.34 218.07 291.59 218.89Q290.85 219.70 290.85 221.24" fill="white" fill-opacity="0.7"/>
<path d="M304.77 229.64L302.61 229.64L302.61 216.44L304.77 216.44L304.77 218.96L304.79 218.96Q304.96 217.64 305.87 216.92Q306.78 216.20 308.30 216.20Q310.29 216.20 311.46 217.42Q312.64 218.65 312.64 220.76L312.64 229.64L310.48 229.64L310.48 221.14Q310.48 219.63 309.72 218.83Q308.97 218.02 307.67 218.02Q306.33 218.02 305.55 218.86Q304.77 219.70 304.77 221.24" fill="white" fill-opacity="0.7"/>
<path d="M320.85 229.88Q318.81 229.88 317.61 228.74Q316.41 227.60 316.41 225.75Q316.41 224.53 316.96 223.62Q317.51 222.70 318.50 222.19Q319.48 221.67 320.75 221.67L324.83 221.67L324.83 220.64Q324.83 218.07 322.02 218.07Q320.78 218.07 320.01 218.53Q319.24 218.98 319.19 219.80L317.03 219.80Q317.15 218.24 318.48 217.22Q319.82 216.20 322.02 216.20Q324.42 216.20 325.71 217.35Q326.99 218.50 326.99 220.57L326.99 229.64L324.86 229.64L324.86 227.24L324.81 227.24Q324.62 228.46 323.58 229.17Q322.55 229.88 320.85 229.88M321.38 228.06Q322.96 228.06 323.90 227.29Q324.83 226.52 324.83 225.20L324.83 223.35L320.99 223.35Q319.94 223.35 319.28 223.99Q318.62 224.62 318.62 225.68Q318.62 226.78 319.35 227.42Q320.08 228.06 321.38 228.06" fill="white" fill-opacity="0.7"/>
<path d="M342.40 229.64L338.32 229.64Q336.57 229.64 335.52 228.62Q334.48 227.60 334.48 225.92L334.48 214.09L329.92 214.09L329.92 212.12L336.64 212.12L336.64 225.92Q336.64 226.74 337.10 227.20Q337.55 227.67 338.32 227.67L342.40 227.67" fill="white" fill-opacity="0.7"/>
<path d="M356.80 229.64L352.72 229.64Q350.97 229.64 349.92 228.62Q348.88 227.60 348.88 225.92L348.88 214.09L344.32 214.09L344.32 212.12L351.04 212.12L351.04 225.92Q351.04 226.74 351.50 227.20Q351.95 227.67 352.72 227.67L356.80 227.67" fill="white" fill-opacity="0.7"/>
<path d="M364.53 233.96L362.27 233.96L364.22 228.82L359.30 216.44L361.62 216.44L364.74 224.60Q364.94 225.08 365.10 225.61Q365.27 226.14 365.34 226.52Q365.42 226.14 365.58 225.61Q365.75 225.08 365.92 224.60L368.82 216.44L371.10 216.44" fill="white" fill-opacity="0.7"/>
<path d="M379.60 229.88Q378.71 229.88 378.17 229.35Q377.63 228.82 377.63 227.98Q377.63 227.10 378.17 226.54Q378.71 225.99 379.60 225.99Q380.49 225.99 381.03 226.54Q381.57 227.10 381.57 227.98Q381.57 228.82 381.03 229.35Q380.49 229.88 379.60 229.88" fill="white" fill-opacity="0.7"/>
<path d="M76.11 136.06L66.42 136.06L84.56 65.98L97.14 65.98L115.18 136.06L105.49 136.06L101.07 117.82L80.53 117.82L76.11 136.06M87.54 88.92L82.45 109.95L99.15 109.95L94.16 89.02Q92.72 83.26 91.86 79.23Q90.99 75.20 90.80 73.76Q90.61 75.20 89.74 79.23Q88.88 83.26 87.54 88.92M146.86 136.06L128.05 136.06L128.05 65.98L146.86 65.98Q153.68 65.98 158.72 68.62Q163.76 71.26 166.54 76.01Q169.33 80.76 169.33 87.20L169.33 114.75Q169.33 121.18 166.54 125.98Q163.76 130.78 158.72 133.42Q153.68 136.06 146.86 136.06M137.55 74.43L137.55 127.61L146.86 127.61Q152.91 127.61 156.37 124.16Q159.82 120.70 159.82 114.75L159.82 87.20Q159.82 81.24 156.37 77.84Q152.91 74.43 146.86 74.43L137.55 74.43M210.80 136.06L201.30 136.06L201.30 110.04L180.27 65.98L190.35 65.98L203.31 93.63Q204.46 96.12 205.18 98.14Q205.90 100.16 206.10 101.02Q206.38 100.16 207.10 98.14Q207.82 96.12 209.07 93.63L221.94 65.98L231.73 65.98L210.80 110.04L210.80 136.06M284.91 136.06L244.11 136.06L244.11 65.98L284.91 65.98L284.91 74.52L253.52 74.52L253.52 95.36L281.55 95.36L281.55 103.61L253.52 103.61L253.52 127.52L284.91 127.52L284.91 136.06M309.58 136.06L300.66 136.06L300.66 65.98L312.94 65.98L333.87 125.12Q333.58 122.62 333.34 118.92Q333.10 115.23 332.96 111.24Q332.82 107.26 332.82 103.71L332.82 65.98L341.84 65.98L341.84 136.06L329.46 136.06L308.72 76.92Q308.91 79.42 309.10 83.02Q309.30 86.62 309.44 90.56Q309.58 94.49 309.58 97.95L309.58 136.06M441.20 136.06L431.70 136.06L431.70 74.62L412.69 74.62L412.69 65.98L460.11 65.98L460.11 74.62L441.20 74.62L441.20 136.06M483.15 136.06L473.74 136.06L473.74 65.98L495.44 65.98Q501.87 65.98 506.67 68.52Q511.47 71.07 514.16 75.63Q516.85 80.19 516.85 86.33Q516.85 93.44 513.25 98.52Q509.65 103.61 503.70 105.72L517.81 136.06L507.34 136.06LNaN 106.78L483.15 106.78L483.15 136.06M483.15 74.43L483.15 98.33L495.44 98.33Q500.82 98.33 503.94 95.07Q507.06 91.80 507.06 86.43Q507.06 80.96 503.89 77.69Q500.72 74.43 495.44 74.43L483.15 74.43M536.91 136.06L527.22 136.06L545.36 65.98L557.94 65.98L575.98 136.06L566.29 136.06L561.87 117.82L541.33 117.82L536.91 136.06M548.34 88.92L543.25 109.95L559.95 109.95L554.96 89.02Q553.52 83.26 552.66 79.23Q551.79 75.20 551.60 73.76Q551.41 75.20 550.54 79.23Q549.68 83.26 548.34 88.92M597.58 136.06L588.66 136.06L588.66 65.98L600.94 65.98L621.87 125.12Q621.58 122.62 621.34 118.92Q621.10 115.23 620.96 111.24Q620.82 107.26 620.82 103.71L620.82 65.98L629.84 65.98L629.84 136.06L617.46 136.06L596.72 76.92Q596.91 79.42 597.10 83.02Q597.30 86.62 597.44 90.56Q597.58 94.49 597.58 97.95L597.58 136.06M667.18 137.02Q656.82 137.02 650.67 131.60Q644.53 126.17 644.53 116.67L654.03 116.67Q654.03 122.24 657.58 125.40Q661.14 128.57 667.18 128.57Q672.94 128.57 676.35 125.36Q679.76 122.14 679.76 116.76Q679.76 112.73 677.55 109.71Q675.34 106.68 671.31 105.63L660.94 102.84Q654.13 100.92 650.14 95.88Q646.16 90.84 646.16 83.93Q646.16 78.27 648.70 74Q651.25 69.72 655.86 67.37Q660.46 65.02 666.51 65.02Q672.66 65.02 677.31 67.37Q681.97 69.72 684.56 73.95Q687.15 78.17 687.15 83.74L677.74 83.74Q677.74 79.13 674.62 76.25Q671.50 73.37 666.51 73.37Q661.52 73.37 658.50 76.25Q655.47 79.13 655.47 83.74Q655.47 87.48 657.49 90.03Q659.50 92.57 663.15 93.63L673.81 96.51Q681.01 98.43 685.04 103.85Q689.07 109.28 689.07 116.76Q689.07 122.91 686.38 127.47Q683.70 132.03 678.75 134.52Q673.81 137.02 667.18 137.02M713.84 136.06L704.34 136.06L704.34 65.98L746.19 65.98L746.19 74.72L713.65 74.72L713.65 96.80L743.70 96.80L743.70 105.44L713.84 105.44L713.84 136.06M803.31 136.06L762.51 136.06L762.51 65.98L803.31 65.98L803.31 74.52L771.92 74.52L771.92 95.36L799.95 95.36L799.95 103.61L771.92 103.61L771.92 127.52L803.31 127.52L803.31 136.06M828.75 136.06L819.34 136.06L819.34 65.98L841.04 65.98Q847.47 65.98 852.27 68.52Q857.07 71.07 859.76 75.63Q862.45 80.19 862.45 86.33Q862.45 93.44 858.85 98.52Q855.25 103.61 849.30 105.72L863.41 136.06L852.94 136.06L839.60 106.78L828.75 106.78L828.75 136.06M828.75 74.43L828.75 98.33L841.04 98.33Q846.42 98.33 849.54 95.07Q852.66 91.80 852.66 86.43Q852.66 80.96 849.49 77.69Q846.32 74.43 841.04 74.43L828.75 74.43M897.58 137.02Q887.22 137.02 881.07 131.60Q874.93 126.17 874.93 116.67L884.43 116.67Q884.43 122.24 887.98 125.40Q891.54 128.57 897.58 128.57Q903.34 128.57 906.75 125.36Q910.16 122.14 910.16 116.76Q910.16 112.73 907.95 109.71Q905.74 106.68 901.71 105.63L891.34 102.84Q884.53 100.92 880.54 95.88Q876.56 90.84 876.56 83.93Q876.56 78.27 879.10 74Q881.65 69.72 886.26 67.37Q890.86 65.02 896.91 65.02Q903.06 65.02 907.71 67.37Q912.37 69.72 914.96 73.95Q917.55 78.17 917.55 83.74L908.14 83.74Q908.14 79.13 905.02 76.25Q901.90 73.37 896.91 73.37Q891.92 73.37 888.90 76.25Q885.87 79.13 885.87 83.74Q885.87 87.48 887.89 90.03Q889.90 92.57 893.55 93.63L904.21 96.51Q911.41 98.43 915.44 103.85Q919.47 109.28 919.47 116.76Q919.47 122.91 916.78 127.47Q914.10 132.03 909.15 134.52Q904.21 137.02 897.58 137.02M976.11 136.06L935.31 136.06L935.31 65.98L976.11 65.98L976.11 74.52L944.72 74.52L944.72 95.36L972.75 95.36L972.75 103.61L944.72 103.61L944.72 127.52L976.11 127.52L976.11 136.06M1001.55 136.06L992.14 136.06L992.14 65.98L1013.84 65.98Q1020.27 65.98 1025.07 68.52Q1029.87 71.07 1032.56 75.63Q1035.25 80.19 1035.25 86.33Q1035.25 93.44 1031.65 98.52Q1028.05 103.61 1022.10 105.72L1036.21 136.06L1025.74 136.06L1012.40 106.78L1001.55 106.78L1001.55 136.06M1001.55 74.43L1001.55 98.33L1013.84 98.33Q1019.22 98.33 1022.34 95.07Q1025.46 91.80 1025.46 86.43Q1025.46 80.96 1022.29 77.69Q1019.12 74.43 1013.84 74.43L1001.55 74.43M1076.34 136.06L1063.57 136.06L1045.62 65.98L1055.41 65.98L1067.02 113.21Q1068.18 117.72 1068.99 121.90Q1069.81 126.08 1070.19 128.28Q1070.48 126.08 1071.39 121.85Q1072.30 117.63 1073.36 113.12L1084.59 65.98L1094.38 65.98L1076.34 136.06M1146.70 136.06L1108.50 136.06L1108.50 127.42L1122.80 127.42L1122.80 74.62L1108.50 74.62L1108.50 65.98L1146.70 65.98L1146.70 74.62L1132.40 74.62L1132.40 127.42L1146.70 127.42L1146.70 136.06M1185.97 137.02Q1176.27 137.02 1170.56 131.60Q1164.85 126.17 1164.85 116.67L1164.85 85.28Q1164.85 75.87 1170.56 70.44Q1176.27 65.02 1185.97 65.02Q1195.57 65.02 1201.28 70.49Q1206.99 75.96 1206.99 85.28L1197.49 85.28Q1197.49 79.61 1194.42 76.54Q1191.34 73.47 1185.97 73.47Q1180.50 73.47 1177.42 76.54Q1174.35 79.61 1174.35 85.28L1174.35 116.67Q1174.35 122.43 1177.42 125.50Q1180.50 128.57 1185.97 128.57Q1191.34 128.57 1194.42 125.50Q1197.49 122.43 1197.49 116.67L1206.99 116.67Q1206.99 126.08 1201.28 131.55Q1195.57 137.02 1185.97 137.02M1264.11 136.06L1223.31 136.06L1223.31 65.98L1264.11 65.98L1264.11 74.52L1232.72 74.52L1232.72 95.36L1260.75 95.36L1260.75 103.61L1232.72 103.61L1232.72 127.52L1264.11 127.52" fill="url(#paint2_linear_0_1)"/>
<g id="Group 1">
<rect id="Rectangle 1" x="26" y="168" width="12" height="184" rx="5" fill="url(#paint3_linear_0_1)" fill-opacity="0.9"/>
</g>
<g id="Group 1_2">
<rect id="Rectangle 2" x="26" y="38" width="12" height="119" rx="5" fill="url(#paint4_linear_0_1)" fill-opacity="0.9"/>
</g>
<ellipse id="Ellipse 1" cx="148.5" cy="573" rx="215.5" ry="214" fill="url(#paint5_linear_0_1)" fill-opacity="0.4"/>
<rect id="Rectangle 3" x="1229" y="48" width="300" height="300" rx="25" fill="#FFFBFB" fill-opacity="0.9"/>
<g id="placeholder-logo"><g transform="translate(1229,48) translate(0.0,60.0) scale(1.2000)"><g fill="#666666">
  <path d="m88.05,27.65c-3.15,4 -3.2,51.2 -0.05,54.35c2.75,2.75 71.7,3.15 74.45,0.45c2.85,-2.9 2.3,-53.85 -0.65,-55.9c-1.95,-1.35 -7.15,-1.55 -36.95,-1.55l-34.7,0l-2.1,2.65zm69.45,3.35c0.65,0 1,8.6 1,23.75l0,23.75l-33,0l-33,0l-0.25,-23c-0.15,-12.6 -0.1,-23.45 0.15,-24.1c0.35,-0.85 8.9,-1.05 32.25,-0.75c17.55,0.2 32.3,0.35 32.85,0.35z"/>
  <path d="m99.15,37.3c-6.85,7.35 4.25,17.35 11.4,10.25c1.35,-1.35 2.45,-3.65 2.45,-5.05c0,-6.45 -9.35,-9.95 -13.85,-5.2z"/>
  <path d="m135,42.5c-0.7,0.85 -5.25,5.15 -10.1,9.6l-8.85,8.1l-3.2,-3.2l-3.15,-3.15l-6.35,6.3c-5.55,5.5 -6.35,6.75 -6.35,10.05l0,3.8l28.5,0l28.5,0l0,-8.6l0,-8.55l-8.15,-7.7c-9.35,-8.85 -9.15,-8.7 -10.85,-6.65zm7.25,15.2c0.95,0.9 1.75,2.9 1.75,4.45c6.35,-5.05 4.75,-7.15 4.9,-11.55c0.95,0 0,0 0,0l-6.65,7.1z"/>
  <path d="m53.65,110.75c0.1,4.8 0.45,8.65 0.75,8.5c0.35,-0.15 1.3,-0.25 2.1,-0.25c1.1,0 1.5,-1.2 1.5,-4.75l0,-4.75l3.25,5c4.9,7.5 6.2,6.75 6.55,-3.75c0.25,-8.15 0.15,-8.75 -1.7,-8.75c-1.65,0 -2.05,0.8 -2.3,4.75l-0.3,4.75l-2.8,-4.75c-4.85,-8.25 -7.25,-6.9 -7.05,4z"/>
  <path d="m91,108.9c0,9.65 0.3,10.1 6.1,10.1c5.8,0 7.15,-2.65 1.65,-3.2l-3.25,-0.3l-0.3,-6.75c-0.25,-5.95 -0.55,-6.75 -2.25,-6.75c-1.75,0 -1.95,0.7 -1.95,6.9z"/>
  <path d="m151,102.45c0,0.25 1,2.15 2.25,4.2c1.2,2.1 2.45,5.8 2.75,8.25c0.65,5.9 4,6.95 4,1.25c0.05,-2.1 1.25,-5.85 2.95,-8.9l2.9,-5.25l-2.5,0c-1.8,0 -2.8,0.85 -3.75,3.1l-1.3,3.05l-1.25,-3.05c-1.1,-2.6 -6.05,-4.8 -6.05,-2.65z"/>
  <path d="m191,107.45c0,9.05 3.4,8.85 4.25,-0.2c0.45,-5 0.35,-5.25 -1.9,-5.25c-2.2,0 -2.35,0.4 -2.35,5.45z"/>
  <path d="m180.8,104.75c-1.3,5.35 0.65,13.6 3.45,14.35c2.3,0.6 2.75,0.4 2.75,-1.2c0,-1.05 -0.45,-1.9 -1,-1.9c-0.55,0 -1,-1.6 -1,-3.5c0,-1.95 0.45,-3.5 1,-3.5c0.55,0 1,-0.7 1,-1.5c0,-0.85 -0.45,-1.5 -1,-1.5c-0.55,0 -1,-0.7 -1,-1.5c0,-2.1 -3.65,-1.9 -4.2,0.25z"/>
  <path d="m71.55,106.55c-2.2,2.25 -2.05,9.7 0.3,11.8c4.5,4.1 10.15,0.75 10.15,-6.1c0,-4.85 -2,-7.25 -6,-7.25c-1.55,0 -3.55,0.7 -4.45,1.55zm6.25,5.8c0.25,3.05 0,3.65 -1.6,3.65c-2.3,0 -3.25,-2.65 -2.05,-5.85c1.25,-3.35 3.3,-2.1 3.65,2.2z"/>
  <path d="m105.75,106.1c-2.5,1.45 -2.45,9.95 0.1,12.25c4.3,3.9 10.15,0.35 10.15,-6.2c0,-6 -5.15,-9.05 -10.25,-6.05zm6.05,6.25c0.25,3.05 0,3.65 -1.6,3.65c-2.3,0 -3.25,-2.65 -2.05,-5.85c1.25,-3.35 3.3,-2.1 3.65,2.2z"/>
  <path d="m119.2,106.2c-3.8,3.8 -0.4,12.55 4.4,11.35c1.9,-0.45 2.45,-0.3 2.15,0.65c-0.25,0.7 -1.55,1.2 -2.85,1.1c-4.05,-0.3 -5.35,0.45 -3.85,2.25c0.85,1.05 2.6,1.45 5.35,1.25l4.1,-0.3l0.3,-8.75l0.3,-8.75l-4.35,0c-2.4,0 -4.9,0.55 -5.55,1.2zm6.6,4.45c0.4,2.85 -2.15,4.85 -3.75,2.95c-0.9,-1.1 -0.9,-2 -0.05,-3.6c1.35,-2.5 3.4,-2.15 3.8,0.65z"/>
  <path d="m133.55,106.55c-2.2,2.25 -2.05,9.7 0.3,11.8c4.5,4.1 10.15,0.75 10.15,-6.1c0,-4.85 -2,-7.25 -6,-7.25c-1.55,0 -3.55,0.7 -4.45,1.55zm6.25,5.8c0.25,3.05 0,3.65 -1.6,3.65c-2.3,0 -3.25,-2.65 -2.05,-5.85c1.25,-3.35 3.3,-2.1 3.65,2.2z"/>
  <path d="m167.65,106.85c-3.9,4.3 -0.75,13.15 4.7,13.15c2.4,0 5.65,-2.75 5.65,-4.85c0,-1.4 -2.65,-1.55 -3.5,-0.15c-0.95,1.55 -4.5,1.15 -4.5,-0.5c0,-1.1 1.1,-1.5 4,-1.5c3.15,0 4,-0.35 4,-1.8c0,-5.3 -6.85,-8.25 -10.35,-4.35z"/>
  <path d="m191,117.5c0,2.15 0.4,2.6 2.25,2.3c1.5,-0.2 2.25,-1 2.25,-2.3c0,-1.3 -0.75,-2.1 -2.25,-2.3c-1.85,-0.3 -2.25,0.15 -2.25,2.3z"/>
 </g></g></g>
</g>
<defs>
<linearGradient id="paint0_linear_0_1" x1="0" y1="198" x2="1584" y2="198" gradientUnits="userSpaceOnUse">
<stop stop-color="#3D052C"/>
<stop offset="1"/>
</linearGradient>
<linearGradient id="paint1_linear_0_1" x1="323" y1="-224" x2="323" y2="352" gradientUnits="userSpaceOnUse">
<stop stop-color="#28F6F2" stop-opacity="0.4"/>
<stop offset="1" stop-color="#17908E" stop-opacity="0.7"/>
</linearGradient>
<linearGradient id="paint2_linear_0_1" x1="148.5" y1="38" x2="148.5" y2="140" gradientUnits="userSpaceOnUse">
<stop stop-color="white"/>
<stop offset="1" stop-color="#999999"/>
</linearGradient>
<linearGradient id="paint3_linear_0_1" x1="38" y1="260" x2="26" y2="260" gradientUnits="userSpaceOnUse">
<stop stop-color="#D9D9D9"/>
<stop offset="1" stop-color="#737373"/>
</linearGradient>
<linearGradient id="paint4_linear_0_1" x1="38" y1="97.5" x2="26" y2="97.5" gradientUnits="userSpaceOnUse">
<stop stop-color="#D9D9D9"/>
<stop offset="1" stop-color="#737373"/>
</linearGradient>
<linearGradient id="paint5_linear_0_1" x1="27.5" y1="434.5" x2="148.5" y2="787" gradientUnits="userSpaceOnUse">
<stop stop-color="#2E21BC"/>
<stop offset="1" stop-color="#150F56"/>
</linearGradient>
<clipPath id="clip0_0_1">
<rect width="1584" height="396" fill="white"/>
</clipPath>
</defs>
</svg>
